<svg xmlns="http://www.w3.org/2000/svg" viewBox="0 0 1000 1000"><path fill="#fff" d="M462.1 10.36c-100.58 10.35-182.58 41.57-259.03 98.67-24.14 18.01-76.25 70.12-94.26 94.26-51.92 69.73-83.72 147.33-96.37 236.03-3.26 22.61-3.26 98.09 0 120.7 12.65 88.9 44.64 167.26 96.56 236.04 18.01 23.95 54.6 61.88 79.51 82.38 98.67 81.23 228.56 121.47 354.05 109.78C656.37 977.5 758.1 930.75 840.3 851.24c85.26-82.77 136.6-189.67 147.71-308.46 11.69-125.49-28.55-255.39-109.78-354.06-77.98-94.65-186.22-155.76-309.8-174.73-19.35-2.87-89.47-5.36-106.33-3.63zm76.64 62.07c77.98 7.09 153.85 36.21 217.64 83.53 25.48 18.97 67.82 61.31 86.79 86.79 43.11 58.05 68.97 120.32 80.85 194.65 4.79 29.31 4.79 93.11.19 123.58-11.5 73.76-37.74 137.37-81.62 196.38-18.2 24.52-60.93 67.25-85.45 85.45-58.82 43.68-123.19 70.31-196.38 81.62-30.46 4.6-94.26 4.6-123.57-.19-74.34-11.88-136.6-37.74-194.65-80.85-25.48-18.97-67.82-61.31-86.79-86.79-113.61-153.46-113.61-360.95 0-513.84 17.24-23.18 50.77-58.24 72.61-75.87 87.18-70.51 199.25-104.61 310.38-94.46z"/><path fill="#fff" d="M376.84 285.09v91.96H192.92v245.24h183.92v183.92h245.24V622.29H806V377.05H622.08V193.13H376.84v91.96zm183.93 61.31v91.96h183.92v122.62H560.77V744.9H438.15V560.98H254.23V438.36h183.92V254.44h122.62v91.96z"/></svg>